<svg width="200" height="200" viewBox="0 0 200 200" fill="none" xmlns="http://www.w3.org/2000/svg">
  <rect width="200" height="200" fill="white"/>
  <path d="M100 20L140 80H60L100 20Z" fill="#667eea"/>
  <path d="M100 20L140 80H60L100 20Z" fill="url(#grad1)"/>
  <path d="M60 80L100 140H20L60 80Z" fill="#764ba2"/>
  <path d="M140 80L180 140H100L140 80Z" fill="#764ba2"/>
  <path d="M40 140L80 180H0L40 140Z" fill="#667eea"/>
  <path d="M80 140L120 180H40L80 140Z" fill="#667eea"/>
  <path d="M120 140L160 180H80L120 140Z" fill="#667eea"/>
  <path d="M160 140L200 180H120L160 140Z" fill="#764ba2"/>
  <defs>
    <linearGradient id="grad1" x1="100" y1="20" x2="100" y2="80" gradientUnits="userSpaceOnUse">
      <stop offset="0%" stop-color="#667eea"/>
      <stop offset="100%" stop-color="#764ba2"/>
    </linearGradient>
  </defs>
</svg>
